<svg xmlns="http://www.w3.org/2000/svg" viewBox="0 0 120 120">
<rect width="120" height="120" fill="#F0F8FF"/>
<ellipse cx="60" cy="92" rx="35" ry="28" fill="#2C3E50"/>
<circle cx="60" cy="50" r="26" fill="#C68642"/>
<path d="M34 48 Q36 15 60 13 Q84 15 86 48" fill="#1C0A00"/>
<path d="M82 35 L88 30 Q92 26 96 30 L90 40 Z" fill="#1C0A00"/>
<ellipse cx="50" cy="48" rx="4" ry="5" fill="#1A0A00"/>
<ellipse cx="70" cy="48" rx="4" ry="5" fill="#1A0A00"/>
<circle cx="51" cy="47" r="1.5" fill="#fff"/>
<circle cx="71" cy="47" r="1.5" fill="#fff"/>
<path d="M46 40 Q50 37 54 40" stroke="#3D2B1F" stroke-width="2" fill="none"/>
<path d="M66 40 Q70 37 74 40" stroke="#3D2B1F" stroke-width="2" fill="none"/>
<path d="M53 57 Q60 63 67 57" stroke="#7B4A28" stroke-width="2" fill="none" stroke-linecap="round"/>
<path d="M56 58 Q60 70 64 58" fill="#C68642"/>
<path d="M34 48 Q30 56 34 62 Q36 54 34 48Z" fill="#C68642"/>
<path d="M86 48 Q90 56 86 62 Q84 54 86 48Z" fill="#C68642"/>
</svg>