<svg xmlns="http://www.w3.org/2000/svg" viewBox="0 0 120 120">
<rect width="120" height="120" fill="#FFF9F0"/>
<ellipse cx="60" cy="90" rx="35" ry="28" fill="#E67E22"/>
<circle cx="60" cy="50" r="26" fill="#D4A76A"/>
<path d="M34 46 Q36 15 60 13 Q84 15 86 46" fill="#3D1C00"/>
<path d="M34 43 Q36 18 60 16 Q84 18 86 43" fill="#5C2A00" opacity=".5"/>
<ellipse cx="50" cy="48" rx="4" ry="5" fill="#2C1810"/>
<ellipse cx="70" cy="48" rx="4" ry="5" fill="#2C1810"/>
<circle cx="51" cy="47" r="1.5" fill="#fff"/>
<circle cx="71" cy="47" r="1.5" fill="#fff"/>
<path d="M46 39 Q50 36 54 39" stroke="#3D1C00" stroke-width="2" fill="none"/>
<path d="M66 39 Q70 36 74 39" stroke="#3D1C00" stroke-width="2" fill="none"/>
<path d="M53 57 Q60 64 67 57" stroke="#7B4A28" stroke-width="2.5" fill="none" stroke-linecap="round"/>
<ellipse cx="48" cy="54" rx="5" ry="2.5" fill="#D4A0A0" opacity=".4"/>
<ellipse cx="72" cy="54" rx="5" ry="2.5" fill="#D4A0A0" opacity=".4"/>
</svg>