<svg xmlns="http://www.w3.org/2000/svg" viewBox="0 0 120 120">
<rect width="120" height="120" fill="#FFF0F5"/>
<ellipse cx="60" cy="90" rx="35" ry="28" fill="#E91E8C"/>
<circle cx="60" cy="50" r="26" fill="#C68642"/>
<path d="M34 48 Q36 14 60 12 Q84 14 86 48" fill="#1A0A00"/>
<path d="M34 46 Q36 20 60 18 Q84 20 86 46" fill="#2C1810" opacity=".4"/>
<ellipse cx="50" cy="48" rx="4" ry="5" fill="#1A0A00"/>
<ellipse cx="70" cy="48" rx="4" ry="5" fill="#1A0A00"/>
<circle cx="51" cy="47" r="1.5" fill="#fff"/>
<circle cx="71" cy="47" r="1.5" fill="#fff"/>
<path d="M46 39 Q50 36 54 39" stroke="#3D1C00" stroke-width="2" fill="none"/>
<path d="M66 39 Q70 36 74 39" stroke="#3D1C00" stroke-width="2" fill="none"/>
<path d="M53 57 Q60 64 67 57" stroke="#7B4A28" stroke-width="2.5" fill="none" stroke-linecap="round"/>
<path d="M34 48 Q30 56 34 62 Q36 54 34 48Z" fill="#C68642"/>
<path d="M86 48 Q90 56 86 62 Q84 54 86 48Z" fill="#C68642"/>
</svg>