<svg xmlns="http://www.w3.org/2000/svg" viewBox="0 0 120 120">
<rect width="120" height="120" fill="#F5F0FF"/>
<ellipse cx="60" cy="90" rx="35" ry="28" fill="#6C3483"/>
<circle cx="60" cy="50" r="26" fill="#FDBCB4"/>
<path d="M34 52 Q34 22 60 20 Q86 22 86 52" fill="#8B4513"/>
<path d="M34 50 Q36 28 60 26 Q84 28 86 50" fill="#A0522D" opacity=".5"/>
<ellipse cx="50" cy="48" rx="4" ry="5" fill="#2C1810"/>
<ellipse cx="70" cy="48" rx="4" ry="5" fill="#2C1810"/>
<circle cx="51" cy="47" r="1.5" fill="#fff"/>
<circle cx="71" cy="47" r="1.5" fill="#fff"/>
<path d="M46 39 Q50 36 54 38" stroke="#5C3317" stroke-width="1.5" fill="none"/>
<path d="M66 39 Q70 36 74 38" stroke="#5C3317" stroke-width="1.5" fill="none"/>
<path d="M53 58 Q60 65 67 58" stroke="#C0696A" stroke-width="2.5" fill="none" stroke-linecap="round"/>
<ellipse cx="48" cy="54" rx="5" ry="2.5" fill="#F4A0A0" opacity=".5"/>
<ellipse cx="72" cy="54" rx="5" ry="2.5" fill="#F4A0A0" opacity=".5"/>
</svg>