<svg xmlns="http://www.w3.org/2000/svg" viewBox="0 0 120 120">
<rect width="120" height="120" fill="#FDF2F8"/>
<ellipse cx="60" cy="90" rx="35" ry="28" fill="#9B59B6"/>
<path d="M25 55 Q30 20 60 18 Q90 20 95 55 Q85 50 60 50 Q35 50 25 55Z" fill="#1A0A00"/>
<circle cx="60" cy="50" r="26" fill="#F0D5B5"/>
<path d="M25 52 Q30 25 60 22 Q90 25 95 52" fill="#1A0A00"/>
<ellipse cx="50" cy="48" rx="4" ry="5" fill="#1A0A00"/>
<ellipse cx="70" cy="48" rx="4" ry="5" fill="#1A0A00"/>
<circle cx="51" cy="47" r="1.5" fill="#fff"/>
<circle cx="71" cy="47" r="1.5" fill="#fff"/>
<path d="M53 58 Q60 64 67 58" stroke="#8B4513" stroke-width="2" fill="none" stroke-linecap="round"/>
<ellipse cx="48" cy="54" rx="5" ry="2.5" fill="#F4A0A0" opacity=".5"/>
<ellipse cx="72" cy="54" rx="5" ry="2.5" fill="#F4A0A0" opacity=".5"/>
</svg>