<svg xmlns="http://www.w3.org/2000/svg" viewBox="0 0 120 120">
<rect width="120" height="120" fill="#F0F7FF"/>
<ellipse cx="60" cy="90" rx="35" ry="28" fill="#2980B9"/>
<circle cx="60" cy="50" r="26" fill="#D4A76A"/>
<path d="M34 44 Q36 15 60 13 Q84 15 86 44" fill="#5C3317"/>
<path d="M34 46 Q36 20 60 18 Q84 20 86 46" fill="#7B4A28" opacity=".5"/>
<ellipse cx="50" cy="48" rx="4" ry="5" fill="#2C1810"/>
<ellipse cx="70" cy="48" rx="4" ry="5" fill="#2C1810"/>
<circle cx="51" cy="47" r="1.5" fill="#fff"/>
<circle cx="71" cy="47" r="1.5" fill="#fff"/>
<path d="M53 57 Q60 63 67 57" stroke="#7B4A28" stroke-width="2" fill="none" stroke-linecap="round"/>
<line x1="52" y1="30" x2="68" y2="30" stroke="#5C3317" stroke-width="3" stroke-linecap="round"/>
<path d="M46 39 Q50 36 54 39" stroke="#5C3317" stroke-width="1.5" fill="none"/>
<path d="M66 39 Q70 36 74 39" stroke="#5C3317" stroke-width="1.5" fill="none"/>
</svg>