<svg xmlns="http://www.w3.org/2000/svg" viewBox="0 0 120 120">
<rect width="120" height="120" fill="#FFF5F5"/>
<ellipse cx="60" cy="90" rx="35" ry="28" fill="#E74C3C"/>
<circle cx="60" cy="50" r="26" fill="#C68642"/>
<path d="M34 46 Q60 10 86 46" fill="#2C1810"/>
<ellipse cx="50" cy="48" rx="4" ry="5" fill="#1A0A00"/>
<ellipse cx="70" cy="48" rx="4" ry="5" fill="#1A0A00"/>
<circle cx="51" cy="47" r="1.5" fill="#fff"/>
<circle cx="71" cy="47" r="1.5" fill="#fff"/>
<path d="M46 39 Q50 36 54 38" stroke="#5C3317" stroke-width="1.5" fill="none"/>
<path d="M66 39 Q70 36 74 38" stroke="#5C3317" stroke-width="1.5" fill="none"/>
<path d="M53 57 Q60 63 67 57" stroke="#7B4A28" stroke-width="2" fill="none" stroke-linecap="round"/>
<rect x="50" y="62" width="20" height="3" rx="1.5" fill="#C68642" opacity=".3"/>
<path d="M34 46 Q30 55 34 60 Q36 52 34 46Z" fill="#C68642"/>
<path d="M86 46 Q90 55 86 60 Q84 52 86 46Z" fill="#C68642"/>
</svg>