<svg xmlns="http://www.w3.org/2000/svg" viewBox="0 0 100 100">
  <circle cx="50" cy="50" r="50" fill="#EF9A9A"/>
  <circle cx="50" cy="38" r="18" fill="#FFEBEE"/>
  <ellipse cx="44" cy="35" rx="3" ry="4" fill="#B71C1C"/>
  <ellipse cx="56" cy="35" rx="3" ry="4" fill="#B71C1C"/>
  <circle cx="44" cy="36" r="1.5" fill="#fff"/>
  <circle cx="56" cy="36" r="1.5" fill="#fff"/>
  <path d="M44 46 Q50 51 56 46" stroke="#C62828" stroke-width="2" fill="none" stroke-linecap="round"/>
  <ellipse cx="50" cy="73" rx="22" ry="18" fill="#FFEBEE"/>
  <path d="M28 68 Q50 60 72 68 L70 82 Q50 90 30 82Z" fill="#EF9A9A"/>
  <path d="M36 26 Q50 15 64 26 Q58 20 50 18 Q42 20 36 26Z" fill="#B71C1C"/>
  <circle cx="42" cy="23" r="3" fill="#C62828"/>
  <circle cx="58" cy="23" r="3" fill="#C62828"/>
</svg>